<?xml version="1.0" encoding="utf-8"?>
<!-- Generator: Adobe Illustrator 18.0.0, SVG Export Plug-In . SVG Version: 6.00 Build 0)  -->
<!DOCTYPE svg PUBLIC "-//W3C//DTD SVG 1.1//EN" "http://www.w3.org/Graphics/SVG/1.1/DTD/svg11.dtd">
<svg version="1.1" xmlns="http://www.w3.org/2000/svg" xmlns:xlink="http://www.w3.org/1999/xlink" x="0px" y="0px"
	 viewBox="0 0 1000 1000" enable-background="new 0 0 1000 1000" xml:space="preserve">
<g id="bg">
	<rect x="2.6" y="1" fill="#9AB9D6" width="1000" height="1000"/>
</g>
<g id="hand">
	<g id="Layer_5">
		<g>
			<path fill="#FFFFFF" d="M857.3,278.4c-12.1,14.7-28.4,11.5-43.5,3.4c-15.1-8.1-166.4-89.7-166.4-89.7s-67.6-26.8-85.4-34.5
				c-25.8,9.1-223.3,52.9-229.4,60c-6.1,7.1,7,11.2,29.5,14.5c22.6,3.3,172.9-45.2,203.7-53.2c52.5-9.4,99.4,81.9,49.7,112.6
				c-28.6,12.8-175.3,52.5-192.1,59.6c-13.1,14.4-52.1,55.4-101.5,73.6c-21.6,5.6-89.4,17.9-115.7-0.8
				c-26.3-18.8-103.5-120.7-50.2-192c0.9-17.1,164.7-114.1,209.4-123.1c25.3-8.5,87-30.7,146.8-29.5C523.2,78,590.7,67.4,658,104
				c56.5,29.7,197.8,116.3,202.8,135.3C870.5,253.7,870.5,259,857.3,278.4z"/>
			<path fill="#FFFFFF" d="M813.4,321.5c-1.7-16.8-125.2-94.9-136.4-94.5s-18.5,10.6-14.8,22.7c3.7,12.1,96.6,69.1,115.3,77.9
				C796.1,336.4,811.9,342.5,813.4,321.5z"/>
			<path fill="#FFFFFF" d="M662.3,279.2c-12,1.1-19.7,11.3-13.4,23.7c6.3,12.4,87.4,58.6,102.5,64.9c15.2,6.3,22.5-1.3,21.2-13.2
				C771.4,342.7,674.2,278.1,662.3,279.2z"/>
			<path fill="#FFFFFF" d="M614.3,305.1c-11.5,0.7-19.2,10.2-13.5,22.3s82,58.5,96.4,65c14.3,6.5,21.6-0.6,20.7-12
				C717,369,625.8,304.4,614.3,305.1z"/>
		</g>
	</g>
</g>
<g id="monkey_head">
	<g id="XMLID_1_">
		<g>
			<path fill="#422311" d="M1000,874.5c0,58.9-38.3,109-91.3,126.5h-51H857H746.9c3.7-17.2,5.6-34.9,5.6-53.2
				c0-46.7-12.7-90.4-34.7-127.9c41-25.2,68.4-70.5,68.4-122.1c0-79.1-64.1-143.2-143.2-143.2c-77.3,0-140.3,61.2-143.1,137.9
				c-2.8-76.6-65.8-137.9-143.1-137.9c-79.1,0-143.2,64.1-143.2,143.2c0,51.7,27.4,97.1,68.6,122.2c-22,37.5-34.7,81.1-34.7,127.8
				c0,18.2,1.9,36,5.6,53.2H96.5c-53-17.6-91.3-67.6-91.3-126.5c0-72.6,58-131.6,130.1-133.3C179.1,580.9,325.8,463.1,500,463.1
				s320.8,117.8,364.6,278.1c0.7,0,1.4,0,2.1,0C940.3,741.2,1000,800.8,1000,874.5z"/>
			<path fill="#FCA57A" d="M786.2,697.8c0,51.7-27.4,97-68.4,122.1c22.1,37.5,34.7,81.2,34.7,127.9c0,18.2-1.9,36-5.6,53.2H253.1
				c-3.7-17.2-5.6-34.9-5.6-53.2c0-46.6,12.6-90.3,34.7-127.8c-41.1-25.2-68.6-70.5-68.6-122.2c0-79.1,64.1-143.2,143.2-143.2
				c77.3,0,140.3,61.2,143.1,137.9c2.8-76.6,65.8-137.9,143.1-137.9C722.1,554.6,786.2,618.7,786.2,697.8z"/>
		</g>
	</g>
</g>
<g id="eyes">
	<path d="M403.1,697.3c-19,0-34.4,26.6-35,59.9h6c0.5-29.9,13.2-53.9,28.9-53.9c15.7,0,28.5,24,28.9,53.9h6.1
		C437.5,724,422,697.3,403.1,697.3z"/>
	<path d="M596.7,697.3c-19,0-34.4,26.6-35,59.9h6c0.5-29.9,13.2-53.9,28.9-53.9c15.7,0,28.5,24,28.9,53.9h6.1
		C631.1,724,615.7,697.3,596.7,697.3z"/>
</g>
<g id="nose">
	<path fill="#911B31" d="M579.3,830.3c0-25-20.3-45.3-45.3-45.3c-12.2,0-23.3,4.8-31.4,12.7c-8.1-7.8-19.2-12.7-31.4-12.7
		c-25,0-45.3,20.3-45.3,45.3c0,14.4,6.8,27.3,17.3,35.5l58.2,59.8l64.5-62.8l-0.2-0.3C574.1,854.4,579.3,843,579.3,830.3z"/>
</g>
</svg>
