<?xml version="1.0" encoding="utf-8"?>
<!-- Generator: Adobe Illustrator 18.0.0, SVG Export Plug-In . SVG Version: 6.00 Build 0)  -->
<!DOCTYPE svg PUBLIC "-//W3C//DTD SVG 1.1//EN" "http://www.w3.org/Graphics/SVG/1.1/DTD/svg11.dtd">
<svg version="1.1" xmlns="http://www.w3.org/2000/svg" xmlns:xlink="http://www.w3.org/1999/xlink" x="0px" y="0px"
	 viewBox="0 0 1000 1000" enable-background="new 0 0 1000 1000" xml:space="preserve">
<g id="bg">
	<rect fill="#CD9AD8" width="1000" height="1000"/>
</g>
<g id="hand">
	<g id="Layer_5">
		<g>
			<path fill="#FFFFFF" d="M435,362.2c6.2,13.5-1.6,23.8-12.4,31.5c-10.8,7.8-119,85.7-119,85.7s-41.7,38.1-53,47.9
				c-2.4,21.1-38.8,173.8-35.9,180.5s10.2-1.1,20.1-15.7c10-14.6,27.1-136,31.9-160.2c11.2-39.8,90.8-41.6,95.4,3.5
				c-0.8,24.3-22.8,140.1-23.5,154.2c5.6,14,21,55.2,16.9,95.8c-3.4,17-17.8,68.4-39.8,80.4c-22,12-119.3,31.3-151-30.1
				c-11.6-6.4-23.8-153.6-14.9-187.9c2.6-20.5,8.1-71.1,29.2-112.5c3-8.1,18.5-58.8,66.9-93.4c39.9-29.4,148.2-98.6,163.2-95.6
				C422.3,344.7,426,346.4,435,362.2z"/>
			<path fill="#FFFFFF" d="M450.3,407.5c-12.3-4.5-108.7,55.2-112.2,63.1c-3.6,7.9,1.1,16.5,10.8,18.1c9.7,1.5,81-44,93.5-54
				C454.8,424.6,464.4,415.6,450.3,407.5z"/>
			<path fill="#FFFFFF" d="M369.5,498.6c-3.3,8.7,1.2,17.6,12,17.4s70.5-41.1,80-49.6s6.7-16.1-2-19.3
				C450.9,444,372.8,489.9,369.5,498.6z"/>
			<path fill="#FFFFFF" d="M371.3,540.9c-3.4,8.3,0.7,16.8,11,17c10.3,0.1,68.7-37.4,78-45.2c9.4-7.8,6.9-15.3-1.4-18.5
				C450.7,490.9,374.7,532.6,371.3,540.9z"/>
		</g>
	</g>
</g>
<g id="monkey_back_1_">
	<g>
		<path fill="none" d="M491,850.4C491,596.7,640.8,391,825.7,391c63.9,0,123.5,24.6,174.3,67.1V62c0-33.5-27.5-61-61-61H61
			C27.5,1,0,28.5,0,62v878c0,33.5,27.5,61,61,61h448.4C497.5,953.8,491,903.1,491,850.4z"/>
		<path fill="#422311" d="M491,850.4c0,52.8,6.5,103.4,18.4,150.6H939c33.5,0,61-27.5,61-61V458.2C949.2,415.6,889.5,391,825.7,391
			C640.8,391,491,596.7,491,850.4z"/>
	</g>
</g>
<g id="monkey_head">
	<g id="XMLID_1_">
		<g>
			<path fill="#422311" d="M974.3,474.4c-97.4,0-181.5-56.6-221.4-138.6c-4.5,0.7-9.2,1.1-13.9,1.1c-47.9,0-86.8-38.8-86.8-86.8
				c0-47.2,37.7-85.6,84.7-86.7C757.2,89,811.5,28.7,882,0.1h118.1v70.3c-15.4,16-25.1,37.4-25.9,61.1
				c-1.8-49.9-42.8-89.7-93.2-89.7c-51.5,0-93.2,41.7-93.2,93.2c0,33.7,17.9,63.2,44.6,79.6c-14.3,24.4-22.6,52.8-22.6,83.2
				c0,90.8,73.6,164.4,164.4,164.4c8.8,0,17.4-0.7,25.9-2V473C991.6,473.9,983,474.4,974.3,474.4z"/>
			<path fill="#FCA57A" d="M787.8,135.1c0-51.5,41.7-93.2,93.2-93.2c50.3,0,91.3,39.9,93.2,89.7c0.9-23.7,10.6-45.1,25.9-61.1v319.7
				v2v68.1c-8.4,1.3-17.1,2-25.9,2c-90.8,0-164.4-73.6-164.4-164.4c0-30.3,8.2-58.8,22.6-83.2C805.7,198.3,787.8,168.8,787.8,135.1z
				"/>
		</g>
	</g>
</g>
</svg>
