<?xml version="1.0" encoding="utf-8"?>
<!-- Generator: Adobe Illustrator 18.0.0, SVG Export Plug-In . SVG Version: 6.00 Build 0)  -->
<!DOCTYPE svg PUBLIC "-//W3C//DTD SVG 1.1//EN" "http://www.w3.org/Graphics/SVG/1.1/DTD/svg11.dtd">
<svg version="1.1" xmlns="http://www.w3.org/2000/svg" xmlns:xlink="http://www.w3.org/1999/xlink" x="0px" y="0px"
	 viewBox="0 0 1000 1000" enable-background="new 0 0 1000 1000" xml:space="preserve">
<g id="bg">
	<rect x="2.6" y="1" fill="#CE2951" width="1000" height="1000"/>
</g>
<g id="monkey_head">
	<g id="XMLID_1_">
		<g>
			<path fill="#FCA57A" d="M213.6,345.8c0-79.1,64.1-143.2,143.2-143.2c77.3,0,140.3,61.2,143.1,137.9
				c2.8-76.6,65.8-137.9,143.1-137.9c79.1,0,143.2,64.1,143.2,143.2c0,51.7-27.4,97-68.4,122.1c22.1,37.5,34.7,81.2,34.7,127.9
				c0,139.5-113.1,252.5-252.5,252.5S247.5,735.3,247.5,595.8c0-46.6,12.6-90.3,34.7-127.8C241,442.9,213.6,397.5,213.6,345.8z"/>
			<path fill="#422311" d="M500,867c-149.6,0-278.9-86.9-340.1-213c-6.9,1.1-14.1,1.7-21.3,1.7C64.9,655.7,5.2,596,5.2,522.4
				c0-72.6,58-131.6,130.1-133.2C179.1,228.9,325.8,111,500,111s320.8,117.8,364.6,278.1c0.7,0,1.4,0,2.1,0
				c73.6,0,133.3,59.7,133.3,133.3c0,73.6-59.7,133.3-133.3,133.3c-9,0-17.7-0.9-26.2-2.6C779.5,779.7,649.9,867,500,867z
				 M247.5,595.8c0,139.5,113.1,252.5,252.5,252.5s252.5-113.1,252.5-252.5c0-46.7-12.7-90.3-34.7-127.9
				c41-25.2,68.4-70.5,68.4-122.1c0-79.1-64.1-143.2-143.2-143.2c-77.3,0-140.3,61.2-143.1,137.9c-2.8-76.6-65.8-137.9-143.1-137.9
				c-79.1,0-143.2,64.1-143.2,143.2c0,51.7,27.4,97.1,68.6,122.2C260.1,505.5,247.5,549.2,247.5,595.8z"/>
		</g>
	</g>
</g>
<g id="Layer_5">
	<polygon points="443,397 439.3,397 362.2,352.1 357.2,360.8 419.4,397 354.8,397 354.8,407 418.7,407 359.5,439.3 364.2,447.8 
		439.1,407 443,407 	"/>
	<polygon points="566.7,397 570.4,397 647.5,352.1 652.6,360.8 590.3,397 654.9,397 654.9,407 591,407 650.2,439.3 645.5,447.8 
		570.6,407 566.7,407 	"/>
</g>
<g id="hand">
	<path fill="#FFFFFF" d="M163.6,515.9c22.9-22,40.5-22.8,62.5-12.5c22,10.3,98.4,136.3,98.4,136.3l72.7-106.9
		c0,0,66.8-237.8,81.7-248.6c11.5-10.3,18.8-15.6,39.4-8.3c13.4,4.9,22.8,16.1,22.8,33.8c0,17.6-69.7,235.6-69.7,235.6l7.6,6.2
		c0,0,116.8-224.3,131.9-236c15-11.7,20.6-26.4,46.2-8.1c25.7,18.4,21.4,29,12.5,45.5S543.2,587.1,543.2,587.1l5.9,6.6
		c0,0,140.2-178.4,159.3-191.6c19.1-13.2,35.2-7.3,48.4,4.4c13.2,11.7,11.7,25.7,7.3,38.9c-4.4,13.2-169.6,211.4-169.6,211.4
		l5.1,8.1c0,0,134.5-78.5,164.4-86.6c30-8.1,35.2,11.7,43.3,26.4c8.1,14.7,1.5,27.2-8.8,39.6c-10.3,12.5-199.7,105-199.7,105
		S460.2,905.7,436.8,919.6c-61.7,20.6-191.6-75.6-194.5-117.5c-4.4-16.1-2.2-43.3-2.2-43.3S163.6,542.3,163.6,515.9z"/>
</g>
</svg>
