<?xml version="1.0" encoding="utf-8"?>
<!-- Generator: Adobe Illustrator 18.0.0, SVG Export Plug-In . SVG Version: 6.00 Build 0)  -->
<!DOCTYPE svg PUBLIC "-//W3C//DTD SVG 1.1//EN" "http://www.w3.org/Graphics/SVG/1.1/DTD/svg11.dtd">
<svg version="1.1" id="sillhouette" xmlns="http://www.w3.org/2000/svg" xmlns:xlink="http://www.w3.org/1999/xlink" x="0px"
	 y="0px" viewBox="0 0 1000 1000" enable-background="new 0 0 1000 1000" xml:space="preserve">
<g>
	<g id="XMLID_2_">
		<g>
			<path d="M865.7,391.2c73.6,0,133.3,59.7,133.3,133.3c0,73.6-59.7,133.3-133.3,133.3c-9,0-17.7-0.9-26.2-2.6
				C778.5,781.8,648.9,869.1,499,869.1c-149.6,0-278.9-86.9-340.1-213c-6.9,1.1-14.1,1.7-21.3,1.7c-73.6,0-133.3-59.7-133.3-133.3
				c0-72.6,58-131.6,130.1-133.3C178.1,231,324.8,113.2,499,113.2S819.8,231,863.6,391.3C864.3,391.3,865,391.2,865.7,391.2z"/>
		</g>
		<g>
		</g>
	</g>
</g>
</svg>
